<svg version="1" xmlns="http://www.w3.org/2000/svg" width="874.667" height="874.667" viewBox="0 0 656.000000 656.000000"><path d="M357.3 2.8c-1.8 1.5-4.2 4.9-5.4 7.6-1.8 4.1-2 6.1-1.6 12.6.3 4.2 1.1 9 1.8 10.6.6 1.6 1.5 3.8 1.9 4.9 2.8 7.9 17.9 35.7 22.2 41 .5.5 2 2.8 3.5 5 5.2 8.1 42.9 61.1 44.3 62.5.5.5 6.6 9.4 16.4 24 2.8 4.1 5.4 7.7 5.7 8 .3.3.8 1.2 1.2 2 .7 1.5 2.4 4.3 4 6.4 3.5 5 13 21 17.3 29.4 1.8 3.5 3.8 7 4.6 7.9.7.9 1.1 1.7.9 1.7-.2.1 1.2 3.7 3.3 8 2 4.3 3.6 8.4 3.6 9.1 0 .6.3 1.5.7 1.8 1.3 1.4 6.4 17.6 7.9 25.2.2 1.1.7 3.3 1 5 .4 1.6.8 6.6.9 10.9.3 10.4-1.6 13.7-14.5 24.6-3.6 3-6.7 5.7-7 6-.6.6-1.2 1-22.5 16-8.2 5.8-16.3 11.4-18 12.4-1.6 1.1-3.4 2.3-4 2.8-.5.4-9.1 6.4-19 13.2-9.9 6.8-20.2 14-23 16-2.7 2-7.9 5.8-11.5 8.4-3.6 2.5-6.7 4.9-7 5.2-.3.3-3.2 2.5-6.5 5-3.3 2.4-8.5 6.4-11.5 8.9-3.1 2.6-7.3 5.9-9.4 7.6-2.1 1.6-4.8 3.9-6 5-1.2 1.1-4.9 4.2-8.1 7-6.9 5.8-36.4 35.2-41.5 41.3-1.9 2.3-4.2 5-5 6-.9.9-2.9 3.5-4.5 5.7s-3.5 4.6-4.2 5.3c-2.1 2.1-12.3 18-12.3 19.1 0 .6-.4 1.1-.9 1.1-3 0-19.8 41.1-21.5 52.5-.3 2.2-1 6.5-1.5 9.5-1 5.9-.7 29.9.4 36.5 2.7 16 7.4 29.8 15.8 46.2l4.2 8.3h189l1.2-2.8c2.2-5.2.9-14.2-5.7-39.9-4.4-17.1-4.8-18.4-5.4-21-.3-1-1.2-4.5-2.1-7.8-.9-3.3-1.9-7.1-2.1-8.5-.3-1.4-.9-3.9-1.4-5.5-.5-1.7-1.1-4.6-1.4-6.5-.3-1.9-1.2-6.3-1.9-9.6-.7-3.4-1.4-10.6-1.6-16.1l-.2-9.9 3.7-5.4c2.1-3 4.2-6 4.8-6.6.6-.6 3.7-3.9 6.8-7.5 5.9-6.7 7.5-8.4 47.2-49.3 31.3-32.2 47.3-49.1 57.1-60.2 1.7-1.9 4.9-5.5 7.2-8.2 2.4-2.6 5.2-5.8 6.3-7.2 1.2-1.4 3.6-4.2 5.3-6.3 1.8-2.2 3.9-4.6 4.7-5.6 6.4-7.1 25.8-33.3 28.2-38.1.7-1.4 1.7-3.2 2.4-4 3.2-4 9.7-18.6 11.4-25.6 1-4.1 1.1-6.1.1-10-1.9-7.7-9.4-21.6-21-38.8-5.8-8.8-11-16.7-11.6-17.5-.5-.9-1.2-1.8-1.5-2.1-.3-.3-5.2-6.8-11-14.5-5.7-7.7-10.9-14.5-11.4-15.2-1.3-1.5-2-2.4-6.6-8.3-1.9-2.5-3.7-4.7-4-5-.3-.3-5-6.1-10.5-13-13.9-17.5-35.3-43.1-38.2-45.8-1.3-1.2-2.2-2.2-1.9-2.2.3 0-.7-1.2-2.1-2.8-1.4-1.5-4.6-5.2-7.2-8.2-2.5-3-5.3-6.1-6.1-7-.8-.9-4.2-4.7-7.5-8.5-3.3-3.7-7.1-8-8.5-9.6-1.4-1.5-5-5.6-8.1-9-3.1-3.5-7.2-8-9-10-1.9-2.1-7.2-7.9-11.9-13-9.8-10.9-53.1-54.3-57.5-57.8-1.6-1.3-3.7-2.9-4.5-3.6-3.1-2.6-5.4-2.5-8.7.3z"/><path d="M257.5 58.1c-3.8 1.1-7.9 2.3-9 2.8-1.1.5-4.5 1.9-7.5 3.1-11.2 4.5-35.3 18-53.5 30-7.5 5-32.4 22.8-33.5 24-.3.3-2.3 1.9-4.5 3.5-4.6 3.5-21.3 17.4-29.8 24.9-11.1 9.7-32.2 31.2-40.5 41.1-19.5 23.3-30.4 44.2-29.8 57 .2 4.7 4.8 16.4 6.9 17.3.4.2.7.9.7 1.6 0 .6 1.3 2.7 3 4.6 1.6 1.9 2.9 3.9 3 4.4 0 1.1 20.2 26.2 27.5 34.2 1.7 1.8 3.9 4.3 4.9 5.6 2.2 2.7 12.7 14.7 17.2 19.8 1.8 1.9 4.2 4.8 5.5 6.3 1.3 1.5 3.5 4.1 4.9 5.7 1.4 1.6 3.6 4.3 5 6.1 1.4 1.8 3 3.8 3.7 4.4 3.1 3.1 12.3 17.8 13.2 21 .8 3 .5 5.2-1.5 11.8-3.1 10.5-2.9 9.7-4.3 13.2-3.8 9.1-11.8 32.2-12.5 36.1-.2 1-.9 3.9-1.6 6.3-.6 2.4-1.3 6.8-1.5 9.7l-.3 5.3 60.3.1h60.3l4.9-5.1c2.6-2.9 8.7-9.3 13.4-14.3 4.8-5 10.7-11.3 13.3-14 2.5-2.7 6.3-6.9 8.4-9.4 2-2.4 4.5-5.4 5.6-6.6 3.1-3.4 10.2-14.7 12.5-19.8 8.9-19.6 3.3-39-19.3-66.8-10.5-13-19.5-22.5-51.3-54.6-11.5-11.5-23.9-24.5-27.8-28.9-3.8-4.4-7.3-8.2-7.7-8.3-.5-.2-.8-.9-.8-1.5s-.9-2-1.9-3.1c-3.7-4.1-7.5-12.7-7.4-17.2.1-8 7.3-19.7 19.2-31.4 8.4-8.2 19.3-17.2 26-21.2 2-1.2 3.8-2.5 4.1-2.8.3-.3 3.7-2.4 7.5-4.7 16.1-9.3 30.8-14.4 40.2-13.8 4.8.3 16.1 4.8 20.2 8 6.6 5.2 15.6 13 18.8 16.3 8.4 8.6 15.1 16 20.3 22.2 3 3.6 6.2 7.2 7 8 .8.8 4.4 5.1 8 9.5 3.5 4.4 6.7 8.2 7 8.5.6.6 5.2 6 10.5 12.5 7 8.5 24.8 26.6 30.5 31 12.1 9.2 21.6 11.2 28.4 6 6.4-4.9 7-12.9 2-27-6.6-18.3-19.6-40.5-39.5-67.2C356.1 109 311.5 68 282.7 58.4c-7.4-2.5-16.8-2.6-25.2-.3z"/></svg>